/* XPM */
static char *_beef97ab6c9485d82b7c45db84209e95Qtio7Q7B72bmQox[] = {
/* columns rows colors chars-per-pixel */
"40 40 41 1 ",
"  c None",
". c black",
"X c #0E0E0E",
"o c #0F1E00",
"O c gray8",
"+ c #2E351E",
"@ c #313B1B",
"# c gray13",
"$ c #313131",
"% c #323232",
"& c #3E3E3E",
"* c #640A0E",
"= c #7F1E1E",
"- c #374900",
"; c #6D7800",
": c #4B5425",
"> c #444444",
", c #544E44",
"< c gray32",
"1 c #5F5F5F",
"2 c #7D5F49",
"3 c #5F6F42",
"4 c #736648",
"5 c #776F50",
"6 c gray48",
"7 c gray50",
"8 c #971E2A",
"9 c #8B5716",
"0 c #E53A52",
"q c #B74445",
"w c #FA6B73",
"e c #6F835A",
"r c #CE8820",
"t c #D5A928",
"y c #AE9A4D",
"u c #CBB34E",
"i c #E9D150",
"p c #F2F059",
"a c gray53",
"s c gray63",
"d c #C6C6C6",
/* pixels */
"        ####     #####4    4####        ",
"       #&&&&#####&1111p4444p44&&4       ",
"       #&&&&#####&1111p4444p44&&4       ",
"       #1111111&&#&&11y44yyyyy44p##     ",
"     ##&11111&&&&&##&&p,,44p,,,,y##     ",
"     ##&1111&1111aaa11yuuiiiiiuu=&&##   ",
"   ####&&&&&&&&11111111yyuuuqqyy&&&&&#  ",
"   ####&&&&&&&&11111111yyuuuqqyy&&&&&#  ",
"  #&&##&1111aaa11&11&&&&&111&&111&&11&##",
"  #1111#&&11111111&&11&1111111111&&11&##",
"  #&&11111&&&1111&1111&aa11&aa11&@@111##",
"  #&&&&1&&11111&&1aa&&a11&&&aa&&3::11&##",
"   ##&&&11aaa11&&a11&&1&&33&11&&333&&#  ",
"   ##&&&11aaa11&&a11&&1&&33&11&&333&&#  ",
"     ###&&&&111&&1&&&&&eeeee&&33333++   ",
"   ##&&&&&&&&&&##&&&111eeeeeeeee333++   ",
"     ##&11111&&ee3&&111**22eeeeee33++   ",
"     ##&11111&&ee3&&111**22eeeeee33++   ",
"     ###&&111&&ee@3311e8888822eee33++   ",
"   ##&&&##&&1&&33@ee11e8800w0088e::++   ",
"     ##&&&&&&&&++:3311eee88088556<<OO   ",
"       ###&&&&&@@:::33eeeeeeee666<<OO   ",
"          ###&&&&@::::<3333:66<<%%%OO   ",
"          ###&&&&@::::<3333:66<<%%%OO   ",
"            &####7+++++<<666<<%%OOOOO   ",
"          &&7dddddddss9%%<<<%%<<<%%OO   ",
"        &&77dss---dddds99%%%6666<%%OO   ",
"        &&77dss---dddds99%%%6666<%%OO   ",
"        &&777oodds;;oo-----%<<66<OO     ",
"        ..oo-ddss;;;..;;;;;-%%<<%OO     ",
"        ..oo-ddrrr99XX-;;;;-oo%%O       ",
"       .oo--sdd33eee++$%%rr%rrOO        ",
"       .oo--sdd33eee++%%%rr$rrOO        ",
"       .oo--dss::eee++-;;--o99XX        ",
"  &&&..ooo--d77+++++--;;;;;-oo..        ",
"&&7....o--dds&&oo-;;;;;;;;;-99XX        ",
"&&7&&ooo--dd7&&99rrrtttttrrrXX          ",
"&&7&&ooo--dd7&&99rrrtttttrrrXX          ",
"  &77sssdd77&XXXXX$%%%>>>XXX            ",
"   &&77777&&      XXXXXXX               "
};
