/* XPM */
static char *_f96c9afa7c84c8d9a2989624bc3e4bdfNCkD5CStyrK9UN5[] = {
/* columns rows colors chars-per-pixel */
"40 40 40 1 ",
"  c None",
". c black",
"X c #0E0E0E",
"o c #0F1E00",
"O c #2E351E",
"+ c #313B1B",
"@ c gray13",
"# c #313131",
"$ c #323232",
"% c #3E3E3E",
"& c #640A0E",
"* c #7F1E1E",
"= c #374900",
"- c #6D7800",
"; c #4B5425",
": c #444444",
"> c #544E44",
", c gray32",
"< c #5F5F5F",
"1 c #7D5F49",
"2 c #5F6F42",
"3 c #736648",
"4 c #776F50",
"5 c gray48",
"6 c gray50",
"7 c #971E2A",
"8 c #8B5716",
"9 c #E53A52",
"0 c #B74445",
"q c #FA6B73",
"w c #6F835A",
"e c #CE8820",
"r c #D5A928",
"t c #AE9A4D",
"y c #CBB34E",
"u c #E9D150",
"i c #F2F059",
"p c gray53",
"a c gray63",
"s c #C6C6C6",
/* pixels */
"                  @33@33 @@             ",
"             @@ 333ii3ii333@            ",
"            @%%@ii3tt>tt3ii%@@ @@       ",
"            @%%@ii3tt>tt3ii%@@ @@       ",
"       @@ @@%<<@tt>33i33>tt<%%@<<@      ",
"      @%%@%%<pp%tty>>u>>ytt<%%p<<%@@@   ",
"      @<<@%%<pp%tt*uu0uu*tt<<<p<<%@@<@@ ",
"    @@%pp<%%<<<%%%tyy*yyt<<%%%<%%<<<%@@ ",
"    @@%pp<%%<<<%%%tyy*yyt<<%%%<%%<<<%@@ ",
"    @@%<<<<<%<<<<<p<<%<<<%%<<<%<<<<<@<<@",
"   @<<@%%<%%p<<%pp<%%2%%<pp<pp<%%%<<<%%@",
"   @%%<<<<%%p<<%<<%22222%pp%<<p%%<<<<%%@",
"    @@%<<p%%<%%2%%222222%<<2%%<%%p<<%@@ ",
"    @@%<<p%%<%%2%%222222%<<2%%<%%p<<%@@ ",
"    @@%%%<%%%222wwwwwwwww%%222%;;<%%%@@ ",
"   @%%%;;<;;%22wwwwwwwwwwwww222;;<;;%%%@",
"    @@%;;%;;&11wwwwwwwwwwwww11&;;%;;%@@ ",
"      @OO@++777711wwwwwww117777++@OO@   ",
"      @OO@++777711wwwwwww117777++@OO@   ",
"       @@O++799q997wwwww799q997++O@@    ",
"      @%%%OO;779774wwwww477977;OO%%%@   ",
"       @@@..,;;2ww,55555,ww2;;,..@@@    ",
"         .==$55,$$5,,$,,5$$,55$==.      ",
"         .==$55,$$5,,$,,5$$,55$==.      ",
"       ..=--=,,5,,$$$$$$$,,5,,=--=..    ",
"      .oo---s$$,$$5,,5,,5$$,$$s---oo.   ",
"      .==sss6oo$,,5555555,,$oo6sss==.   ",
"    ..o66===.oo=$$,55555,$$=oo.===66o.. ",
"    ..o66===.oo=$$,55555,$$=oo.===66o.. ",
"    ..+88eoo.oo=--$,,5,,$--=oo.ooe88+.. ",
"    ..www+88.$#o==-$$,$$-==o$$.88+www.. ",
"    ..w22....oo#88#rr$rr#88$oo....22w.. ",
" ...oo6%%....oo===-eeree-===oo....%%6oo.",
" ...oo6%%....oo===-eeree-===oo....%%6oo.",
".==oooa%%....oo=-----------=oo....%%aooo",
"%66===s%%...X88=-----------=88X...%%s===",
" %%ass6%%    XX8eeerrrrreee8XX    %%6ssa",
"   %%%%      XX$:::XXXXX:::$XX      %%%%",
"   %%%%      XX$:::XXXXX:::$XX      %%%%",
"               XXXX     XXXX            "
};
