/* XPM */
static char *_3f51c37bf1e4581b80ac2f2769c7f61iQbxCd57EUzwc5gk[] = {
/* columns rows colors chars-per-pixel */
"40 40 18 1 ",
"  c None",
". c black",
"X c #0F1E00",
"o c gray13",
"O c #3E3E3E",
"+ c #374900",
"@ c #6D7800",
"# c #544E44",
"$ c #5F5F5F",
"% c #736648",
"& c gray50",
"* c #AE9A4D",
"= c #CBB34E",
"- c #E9D150",
"; c #F2F059",
": c gray53",
"> c gray63",
", c #C6C6C6",
/* pixels */
"                oo   %  o               ",
"               o%%o%%-%%O%% oo          ",
"          oo ooO;;%*****%;;oOOo         ",
"          oo ooO;;%*****%;;oOOo         ",
"         o$$oOO$**#;;%;;#**o$$Ooo oo    ",
"      oooO::$OO$**=--#--=**O::$OOoOOo   ",
"    oo$ooO$$$$$$%%*==-==*%%$::$OOo$$o   ",
"    ooO$$$OO$$$O$$%*****%$$$$$$OO$::Ooo ",
"    ooO$$$OO$$$O$$%*****%$$$$$$OO$::Ooo ",
"   o$$o$$:$$O$$$OOO$$OOOO$$$$$$$$$$$Ooo ",
"   oOO$OO$OO$OO$$$O::$OO$$$:OO$OO$OOo$$o",
"   oOO$$$OOO:$$O$$$::$$$$::$$$$OOO$$$OOo",
"    ooO$$OOO$::$$$$$$$OO$$$$$$O::O$$Ooo ",
"    ooO$$OOO$::$$$$$$$OO$$$$$$O::O$$Ooo ",
"    ooOOO$$$O$$$$$O$$O$$OOO$OO:$$OOOOoo ",
"   oOO$$$O$$$OO$$$OOO$$$O$$$$$$OOO$$$OOo",
"    ooO$$$OO$$$$$$$OO$$$$$$$$$OOO$$$Ooo ",
"      oOO$OOO$$O$$$$$$$$O$$$$$O$$$OOo   ",
"      oOO$OOO$$O$$$$$$$$O$$$$$O$$$OOo   ",
"       ooOOOOOOOOO$OO$$$OOO$OOOOOOoo    ",
"      oOOOOOOOOOOOOOOO$$OOOOOOOOOOOOo   ",
"       ooooooOOOooOOOOOOOooOOOoooooo    ",
"         .XX&oooOOoOOOOOoOOooo&XX.      ",
"         .XX&oooOOoOOOOOoOOooo&XX.      ",
"       ..+XX&>>,oo>ooooo>oo,>>&XX+..    ",
"      .XX@++&>>>,,,,,,,,,,,>>>&++@XX.   ",
"      .++@++X&&>>>,,,,,,,>>>&&X++@++.   ",
"    ..X@@@++X++&>>>,,,,,>>>&++X++@@@X.. ",
"    ..X@@@++X++&>>>,,,,,>>>&++X++@@@X.. ",
"    ..X@@@@@X@@+++&&&&&&&+++@@X@@@@@X.. ",
"    ..X@@@@@+@@@@@+XXXXX+@@@@@+@@@@@X.. ",
"    ..X++@@@+@@@@@@@@@@@@@@@@@+@@@++X.. ",
" OO.XX+++@@@@@@@@@@@@@@@@@@@@@@@@@+++XX.",
" OO.XX+++@@@@@@@@@@@@@@@@@@@@@@@@@+++XX.",
"O&&X++@+++@@@@@@@@@@@@@@@@@@@@@@@+++@++X",
"O&&+@@@@@@++@@@@@@@@@@@@@@@@@@@++@@@@@@+",
" OO>,,>@@@@@@@@@@@@@@@@@@@@@@@@@@@@@>,,>",
"   OOO&&&>>>>,,,,,,,,,,,,,,,,,>>>>&&&OOO",
"   OOO&&&>>>>,,,,,,,,,,,,,,,,,>>>>&&&OOO",
"      OOOOOOOOO&&&&&&&&&&&&&OOOOOOOOO   "
};
