/* XPM */
static char *cbda5ed4cf7443e3b4a3efa21d694e60uNS9hLRk9vMgOqn8[] = {
/* columns rows colors chars-per-pixel */
"40 40 41 1 ",
"  c None",
". c black",
"X c #0E0E0E",
"o c #0F1E00",
"O c gray8",
"+ c #2E351E",
"@ c #313B1B",
"# c gray13",
"$ c #313131",
"% c #323232",
"& c #3E3E3E",
"* c #640A0E",
"= c #7F1E1E",
"- c #374900",
"; c #6D7800",
": c #4B5425",
"> c #444444",
", c #544E44",
"< c gray32",
"1 c #5F5F5F",
"2 c #7D5F49",
"3 c #5F6F42",
"4 c #736648",
"5 c #776F50",
"6 c gray48",
"7 c gray50",
"8 c #971E2A",
"9 c #8B5716",
"0 c #E53A52",
"q c #B74445",
"w c #FA6B73",
"e c #6F835A",
"r c #CE8820",
"t c #D5A928",
"y c #AE9A4D",
"u c #CBB34E",
"i c #E9D150",
"p c #F2F059",
"a c gray53",
"s c gray63",
"d c #C6C6C6",
/* pixels */
"        #####4  ##4###     ###          ",
"      ##44144p4444p11&#####&&&##        ",
"      ##44144p4444p11&#####&&&##        ",
"     #&&pp4yyyyy44y&&#&&111111##        ",
"     #11yy,,,p44,,p##&&&&&1111&&##      ",
"   ##&11==uiiiiiuuyaaa1111&111&&##      ",
"  #&&&&&&&yqquuuyy111111&&&&&&&&###     ",
"  #&&&&&&&yqquuuyy111111&&&&&&&&###     ",
"##&11&1111&111&&&&&11&11aaa111&&##&##   ",
"##&11&1111111111&&1&&11111111&##111##   ",
"##111@&&11a&&1aa&&111&1111&&&11111&##   ",
"##111@&&11a&&1aa&&111&1111&&&11111&##   ",
"##&11:33&&a&&&11aa&aa1&&11111&11&&&##   ",
"  #&&333&&1&&3&&11&11a&&11aaa1&&&&#     ",
"   ++33333&eeeee&&&&&1&&111&&&####      ",
"   ++333eeeeeeee111&&&##&&&&&&&&&&#     ",
"   ++333eeeeeeee111&&&##&&&&&&&&&&#     ",
"   ++3eeeeeee2**111&&3ee&&1111&&##      ",
"   ++3eeee288888ee133@ee&&111&####      ",
"   ++:ee880ww088ee1ee@33&&1&&#&&&&#     ",
"   ++:ee880ww088ee1ee@33&&1&&#&&&&#     ",
"   OO<66558008eeee133:++&&&&&&&&##      ",
"   OO<6666eeeeeeee3:::@@&&&&&###        ",
"   OO%%%<<6::333<<:::@&&&&###           ",
"   OO%%%<<6::333<<:::@&&&&###           ",
"   OOOOO%%<666<<+++++7####&             ",
"   OO%<<<<%<<<%%99sddddddd7&&           ",
"   OO%<<666%%%99ssdddsoossd77&          ",
"     O<<66<%%-ee--;--dssoo777&          ",
"     O<<66<%%-ee--;--dssoo777&          ",
"     O%%<<%--;++rr;;;-dd---oo.          ",
"      OO%%o--+eeeer--ossdd---o..        ",
"        OOr%%+eeee399...ssd---oo...&&   ",
"        OOr%$+eeee399...ssd---oo...&&   ",
"        XX9oo+::33:++-..77sdd-oooo...&  ",
"      XX99ooo-+++++--;99XX7sso--ooo..7&&",
"      XX%%999rrrtttttr$$XX&77sooooo777&&",
"        XXXXXXXXXX>>>>$%XX &&7sssss77&  ",
"        XXXXXXXXXX>>>>%%XX &&7sssss77&  ",
"                  XXXXXX     &&&777&&   "
};
