/* XPM */
static char *result[] = {
/* columns rows colors chars-per-pixel */
"40 40 193 2 ",
"   c #000000",
".  c #0C0A0A",
"X  c #080707",
"o  c #160D0D",
"O  c #0D0C13",
"+  c #160D13",
"@  c #0D111C",
"#  c #171117",
"$  c #0E1507",
"%  c #21150F",
"&  c #2B1A15",
"*  c #261718",
"=  c #262918",
"-  c #293B16",
";  c #322418",
":  c #0D1A25",
">  c #1D1622",
",  c #151A2A",
"<  c #281D29",
"1  c #331825",
"2  c #1D243D",
"3  c #182436",
"4  c #18242C",
"5  c #262422",
"6  c #35252B",
"7  c #312539",
"8  c #2C2C3E",
"9  c #58322E",
"0  c #472D3C",
"q  c #593638",
"w  c #4D2F29",
"e  c #43403C",
"r  c #754838",
"t  c #6A462E",
"y  c #1C3A51",
"u  c #1D2F47",
"i  c #252D4B",
"p  c #382D45",
"a  c #39314B",
"s  c #2C365C",
"d  c #393B5D",
"f  c #2D344D",
"g  c #393F66",
"h  c #323C65",
"j  c #2F3B63",
"k  c #5E3843",
"l  c #5B3642",
"z  c #463958",
"x  c #54364B",
"c  c #6C3B46",
"v  c #6E3C4E",
"b  c #1F425C",
"n  c #2F405E",
"m  c #2A466A",
"M  c #394362",
"N  c #39426D",
"B  c #39496A",
"V  c #364372",
"C  c #394778",
"Z  c #394D7E",
"A  c #394974",
"S  c #39557B",
"D  c #484645",
"F  c #595A59",
"G  c #4F5852",
"H  c #7A454A",
"J  c #764349",
"K  c #6A4654",
"L  c #744C5D",
"P  c #635558",
"I  c #5F6254",
"U  c #564164",
"Y  c #5A4464",
"T  c #5E556F",
"R  c #404976",
"E  c #5A5775",
"W  c #4C5378",
"Q  c #695166",
"!  c #695B75",
"~  c #744870",
"^  c #6D6861",
"/  c #766D68",
"(  c #7E7B7A",
")  c #9B693E",
"_  c #864C49",
"`  c #9C5B52",
"'  c #A05B53",
"]  c #806B55",
"[  c #8A6348",
"{  c #A66354",
"}  c #AB6754",
"|  c #BF7958",
" . c #B97457",
".. c #B06A56",
"X. c #854B6A",
"o. c #97527E",
"O. c #AB5879",
"+. c #BB5E7B",
"@. c #AB5C63",
"#. c #846565",
"$. c #996B61",
"%. c #8B747C",
"&. c #AA7662",
"*. c #B66A72",
"=. c #D47B74",
"-. c #698D3F",
";. c #6FA633",
":. c #72A935",
">. c #6A8F40",
",. c #B79979",
"<. c #A98F78",
"1. c #95BE68",
"2. c #C9835B",
"3. c #D68C5C",
"4. c #DE935D",
"5. c #E4985F",
"6. c #D69668",
"7. c #CC976B",
"8. c #E59D61",
"9. c #E1897B",
"0. c #DBA57E",
"q. c #EEA160",
"w. c #EFAC70",
"e. c #395383",
"r. c #395D85",
"t. c #395788",
"y. c #395C8C",
"u. c #375986",
"i. c #335680",
"p. c #39628E",
"a. c #396494",
"s. c #396C98",
"d. c #34749C",
"f. c #3974A3",
"g. c #3978A8",
"h. c #367BA4",
"j. c #505F84",
"k. c #487A95",
"l. c #6B6F80",
"z. c #427CA8",
"x. c #A4598B",
"c. c #A35583",
"v. c #B75786",
"b. c #967C88",
"n. c #AF6A92",
"m. c #C55D8D",
"M. c #C75E91",
"N. c #CD6093",
"B. c #C86D91",
"V. c #D374A1",
"C. c #348EB5",
"Z. c #3298BB",
"A. c #3183A6",
"S. c #319EC1",
"D. c #2DA6C3",
"F. c #2FA9C8",
"G. c #2CABC5",
"H. c #2DB6D0",
"J. c #7EA7C6",
"K. c #28CCDF",
"L. c #A0908F",
"P. c #A39697",
"I. c #BD9A95",
"U. c #BAA082",
"Y. c #BCA696",
"T. c #B7AEBD",
"R. c #9B8D8E",
"E. c #E39E9A",
"W. c #D6B79B",
"Q. c #E6B288",
"!. c #F1B983",
"~. c #E8BB94",
"^. c #DC93B5",
"/. c #C5B7A3",
"(. c #CBBAA3",
"). c #CCA8AB",
"_. c #E2BDA3",
"`. c #F3C597",
"'. c #E7C39E",
"]. c #CFC6B8",
"[. c #CCC2B5",
"{. c #DAC4A9",
"}. c #F4CCA1",
"|. c #F6D7B6",
" X c #E9C7A1",
".X c #A6ACC2",
"XX c #DACCCD",
"oX c #DAD3C8",
"OX c #F8DEC2",
"+X c #E8E3DE",
"@X c #FEFEFE",
"#X c #F8F9F4",
"$X c None",
/* pixels */
"$X$X$X$X$X$X$X$X$X$X$Xa a a a a a a a a a a a a a a a a a $X$X$X$X$X$X$X$X$X$X$X",
"$X$X$X$X$X$X$X$X$X$X$Xa a a a a a a a a a a a a a a a a a $X$X$X$X$X$X$X$X$X$X$X",
"$X$X$X$X$X$X$X$X$Xa a A p.r.r.r.r.r.r.r.r.r.e.g N g g g d a a a a a $X$X$X$X$X$X",
"$X$X$X$X$X$X$X$X$Xa a S h.g.g.g.g.g.g.g.g.g.s.Z C C C C g a a a a a $X$X$X$X$X$X",
"$X$X$X$X$X$X$X$XM B B p.g.g.g.g.g.g.g.g.g.g.d.t.t.t.t.t.Z B B M B B M $X$X$X$X$X",
"$X$X$X$X$X$Xa a S g.h.f.g.g.g.g.g.g.g.g.g.g.g.g.g.g.g.g.g.g.g.g.g.g.B a a $X$X$X",
"$X$X$X$X$X$Xa a A g.g.g.g.g.g.g.g.g.g.g.f.g.g.g.g.g.g.g.g.g.g.g.g.g.B a a $X$X$X",
"$X$X$Xa a B s.d.f.g.g.g.g.g.g.g.g.g.g.f.e.Z t.g.g.g.g.g.g.g.g.g.g.g.B a a $X$X$X",
"$X$X$Xa a B g.g.g.g.g.g.g.g.g.g.g.f.f.f.Z C e.h.g.g.g.g.g.g.g.g.g.g.V a a $X$X$X",
"$X$X$Xa a B g.g.C.F.F.F.F.F.h.y.a.Z.F.Z.u.C W ( %.( y.y.h.F.F.C.g.g.p.r.S M a $X",
"$X$X$Xa a B g.g.S.K.K.K.K.K.d.C Z D.K.H.u.C T  . .#.C C A.K.K.S.g.g.g.g.f.M a a ",
"$X$X$XB M S g.g.C.H.H.H.D.D.d.e.y.Z.H.D.u.C E 2.2.&.T T k.D.D.C.g.g.g.g.f.M a a ",
"a a M f.g.g.g.g.g.g.g.y.C C s.g.h.g.g.f.Z C ! 8.q.4.| | #.C C a.g.g.g.g.f.M a a ",
"a a M f.g.g.g.g.g.g.h.y.C C s.g.g.g.f.f.Z N ! 5.5.4.| | #.C C a.g.g.g.g.f.M a a ",
"a a M f.g.g.g.g.g.g.g.s O O @ @ : j e.j./.W.<.; & & % % 8 C C a.g.g.y.e.Z , . . ",
"a a M f.g.g.g.g.g.g.g.y           s Z E W.}.,..         3 C C a.g.g.t.C g :     ",
"$X$Xf y b m g.g.i.y y G ^ ^ 5   X / R.P. X}.,..   5 ^ ^ D 2 3 m y.y.e.C g @     ",
"$X$X$X    3 g.g.b     / ].].e   . ,.}.}.}.}.,..   D ].]./     u C C C C C @     ",
"$X$X$X    3 s.a.b @ @ ( oXoXT : 4 U.}.}.}.}.U.4 : F oXoX( @ @ i C C C g g @     ",
"$X$X$X    @ a a d C C .X@X@XJ.g.z./.}.}.}.}./.z.g.J.@X@X.XC C C C C d a a O     ",
"$X$X$X    # a a h C C .X@X@XJ.g.z./.}.}.}.}./.z.g.J.@X@X.XC C C C C d a a +     ",
"    @ s s h N N N C C P.|.|.{.(.(. X}.}.}.}. X(.(.{.|.|.P.C C C C C 3 O O < 6 6 ",
"    @ V C C C C C C C L.}.}.}.}.}.}.}.}.}.}.}.}.}.}.`.}.L.C C C C C ,     6 0 0 ",
"    @ V C h 2 2 2 2 u #.0.0.Q.w.!.`.}.}.}.}.`.!.!.7.[ / P z d Y Q Q q w w l k k ",
"    @ C C i           t | | 4.q.q.!.}.}.}.}.`.q.q.[     * 0 0 J ' ' ' ' ' _ H H ",
"    @ s j i O O % & = r  ...3.5.8.Q.~.~.~.~.Q.7.6.[ O O 6 x q H ' ' ' ' ` H c c ",
"$X$X$X    # U U $.q.q.} H H { | | } ' { | | $.R A C C C Q ' ` ' ' ' ' ' ` k x 0 ",
"$X$X$X    < U U $.q.q.&.H H { |  .} ' '  .| } R A C C C Q ' ' ' ' ' ' ' ` k 0 0 ",
"$X$X$X    > U U L ` ` I.XXXX_.Q.Q.6.4.2...} @.x.x.x.x.x.*.3.3.r & & & & & + + + ",
"$X$X$X    > U U v H H ).@X@XOX X}.w.q.8...' @.M.N.N.N.N.E.5.q.t                 ",
"$X$X$X    # 7 7 0 c v b.T.T.E.E.E.E.=.=.c 9 v M.N.N.N.N.=.&. .w               $X",
"$X$X$X$X$X$X    < l c x U U O.N.N.N.N.O.#   1 M.N.N.N.v.c.U Y 5     $X$X$X$X$X$X",
"$X$X$X$X$X$X    6 K J Q ! ! n.V.V.B.*.O.= $ 6 v.m.v.v.v.X.z z <     $X$X$X$X$X$X",
"$X$X$X$X$X$X    F [.].+X@X@X@X@X#X1.:.:.;.:.>.Y Y p X   X           $X$X$X$X$X$X",
"$X$X$X$X$X$X    P ].].+X@X@X@X@X#X1.;.;.:.:.>.Y U p                 $X$X$X$X$X$X",
"$X$X$X$X$X$X$X$X5 e e %.^.^.^.^.^.#.I G - - = # # +             $X$X$X$X$X$X$X$X",
"$X$X$X$X$X$X$X$X$X    v N.N.N.N.m.~ Y z O                     $X$X$X$X$X$X$X$X$X",
"$X$X$X$X$X$X$X$X$X    c +.+.+.+.+.X.L K o                     $X$X$X$X$X$X$X$X$X",
"$X$X$X$X$X$X$X$X$X    9 ' ' ' ' ' ' ' _ o     $X$X$X$X$X$X$X$X$X$X$X$X$X$X$X$X$X",
"$X$X$X$X$X$X$X$X$X    9 ' ' ' ' ' ' ' _ o     $X$X$X$X$X$X$X$X$X$X$X$X$X$X$X$X$X"
};
