/* XPM */
static char *_208210de4b04aeec55ced6a0babc134L4yybQuMtXbZNthA[] = {
/* columns rows colors chars-per-pixel */
"40 40 16 1 ",
"  c None",
". c black",
"X c #472D3C",
"o c #39314B",
"O c #394778",
"+ c #7A444A",
"@ c #564064",
"# c #A05B53",
"$ c #BF7958",
"% c #EEA160",
"& c #3978A8",
"* c #CD6093",
"= c #28CCDF",
"- c #CFC6B8",
"; c #F4CCA1",
": c white",
/* pixels */
"           ooooooooooooooo              ",
"           ooooooooooooooo              ",
"      oooooOOO&&&&&&&&&&&&ooooo         ",
"      oooooOOO&&&&&&&&&&&&ooooo         ",
"   oooOOO&&&&&&&&&&&&&&&&&&&&&&ooo      ",
"   oooOOO&&&&&&&&&&&&&&&&&&&&&&ooo      ",
"   oooOOO&&&&&&&&&&&&&&&&&&&&&&ooo      ",
"   ooo&&&&&&&&&&&&&&&&&OOO&&&&&&&&ooo   ",
"   ooo&&&&&&&&&&&&&&&&&OOO&&&&&&&&ooo   ",
"   ooo&&&&&&&&===OOO$$$OOO===OO&&&ooo   ",
"   ooo&&&&&&&&===OOO$$$OOO===OO&&&ooo   ",
"oooOOO&&&&&&&&&&&OOO%%%OOO&&&OO&&&&&&ooo",
"oooOOO&&&&&&&&&&&OOO%%%OOO&&&OO&&&&&&ooo",
"oooOOO&&&&&OOO&&&OOO......OOO..OOO&&&ooo",
"oooOOO&&&&&OOO&&&OOO......OOO..OOO&&&ooo",
"oooOOO&&&&&OOO&&&OOO......OOO..OOO&&&ooo",
"ooo&&&&&&&&OOO&&&...---...;;;.....OOO...",
"ooo&&&&&&&&OOO&&&...---...;;;.....OOO...",
"...&&&OOOOOOOO&&&OOO:::&&&;;;;;......   ",
"...&&&OOOOOOOO&&&OOO:::&&&;;;;;......   ",
"...OOOOOO..OOO&&&OOO;;;;;;;;;$$...      ",
"...OOOOOO..OOO&&&OOO;;;;;;;;;$$...      ",
"...OOOXXX++######OOO;;;%%%$$$..         ",
"...OOOXXX++######OOO;;;%%%$$$..         ",
"...OOOXXX###########OOO......           ",
"...OOOXXX###########OOO......           ",
"...OOOXXX###########OOO......           ",
"...OOOOOO..---$$$;;;OOO%%%...           ",
"...OOOOOO..---$$$;;;OOO%%%...           ",
"...OOOOOO..@@@@@@******@@@...           ",
"...OOOOOO..@@@@@@******@@@...           ",
"......OOO..---:::@@@******...           ",
"......OOO..---:::@@@******...           ",
"   ...........@@@***.........           ",
"   ...........@@@***.........           ",
"   ...........@@@***.........           ",
"           ...#########...              ",
"           ...#########...              ",
"           ...............              ",
"           ...............              "
};
