/* XPM */
static char *_49107119ef24f61a52c0a294168cbd0DIZXpg0QtDdOwjDT[] = {
/* columns rows colors chars-per-pixel */
"40 40 10 1 ",
"  c None",
". c black",
"X c #472D3C",
"o c #39314B",
"O c #394778",
"+ c #7A444A",
"@ c #564064",
"# c #A05B53",
"$ c #3978A8",
"% c #28CCDF",
/* pixels */
"             oooooooooooooooo           ",
"             oooooooooooooooo           ",
"        oooooOOOOOO$$$$$$$$$$ooo        ",
"        oooooOOOOOO$$$$$$$$$$ooo        ",
"     ooo$$$$$$$$$$$$$$$$$$$$$$$$ooo     ",
"     ooo$$$$$$$$$$$$$$$$$$$$$$$$ooo     ",
"     ooo$$$$$$$$$$$$$$$$$$$$$$$$ooo     ",
"     ooo$$$$$$$$$$$$$$$$$$$$$$$$$$$oo   ",
"     ooo$$$$$$$$$$$$$$$$$$$$$$$$$$$oo   ",
"   oo$$$$$$%%$$$$$$$$%%%$$$%%%%%$$$oo   ",
"   oo$$$$$$%%$$$$$$$$%%%$$$%%%%%$$$oo   ",
"   oo$$$$$$$$$$$$$$$$$$$$$$$$$$$$$$$$ooo",
"   oo$$$$$$$$$$$$$$$$$$$$$$$$$$$$$$$$ooo",
"   ..OOO$$$$$$$$$$$$$$$$$$$$$$$$$$$$$ooo",
"   ..OOO$$$$$$$$$$$$$$$$$$$$$$$$$$$$$ooo",
"   ..OOO$$$$$$$$$$$$$$$$$$$$$$$$$$$$$ooo",
"   ..OOOOOO$$OOO$$$$$$$$$$$$$OOO$$$..   ",
"   ..OOOOOO$$OOO$$$$$$$$$$$$$OOO$$$..   ",
"   ..OOOOOO$$OOO$$$$$$$$$$$OOOOOOOO..   ",
"   ..OOOOOO$$OOO$$$$$$$$$$$OOOOOOOO..   ",
"   XXOOOOOOOOOOO$$$$$OOOOOOOOOOOOOO..   ",
"   XXOOOOOOOOOOO$$$$$OOOOOOOOOOOOOO..   ",
"XXX++OOOOOOOOOOOOOOOOOOOOOOOOOOOOOO..   ",
"XXX++OOOOOOOOOOOOOOOOOOOOOOOOOOOOOO..   ",
"...++OOOOOOOOOOOOOOOOOOOOOOOOOOOOOO..   ",
"...++OOOOOOOOOOOOOOOOOOOOOOOOOOOOOO..   ",
"...++OOOOOOOOOOOOOOOOOOOOOOOOOOOOOO..   ",
"   ..OOOOOOOOOOOOOOOOOOOOOOOOOOOOOO.....",
"   ..OOOOOOOOOOOOOOOOOOOOOOOOOOOOOO.....",
"   ..OOOOOOOOOOOOOOOOOOOOOOOOOOOOOO.....",
"   ..OOOOOOOOOOOOOOOOOOOOOOOOOOOOOO.....",
"   ..@@@...OOOOOOOOOOOOOOOOOO......@@...",
"   ..@@@...OOOOOOOOOOOOOOOOOO......@@...",
"     ......@@................@@@.....   ",
"     ......@@................@@@.....   ",
"     ......@@................@@@.....   ",
"        ...++###+++.....+++##+++...     ",
"        ...++###+++.....+++##+++...     ",
"           ........     ........        ",
"           ........     ........        "
};
