/* XPM */
static char *_881eabdf4f6432fdd36094599a88e94M043y79XfwaehIkm[] = {
/* columns rows colors chars-per-pixel */
"40 40 16 1 ",
"  c None",
". c black",
"X c #472D3C",
"o c #39314B",
"O c #394778",
"+ c #7A444A",
"@ c #564064",
"# c #A05B53",
"$ c #BF7958",
"% c #EEA160",
"& c #3978A8",
"* c #CD6093",
"= c #28CCDF",
"- c #CFC6B8",
"; c #F4CCA1",
": c white",
/* pixels */
"              ooooooooooooooo           ",
"              ooooooooooooooo           ",
"         ooooo&&&&&&&&&&&&OOOooooo      ",
"         ooooo&&&&&&&&&&&&OOOooooo      ",
"      ooo&&&&&&&&&&&&&&&&&&&&&&OOOooo   ",
"      ooo&&&&&&&&&&&&&&&&&&&&&&OOOooo   ",
"      ooo&&&&&&&&&&&&&&&&&&&&&&OOOooo   ",
"   ooo&&&&&&&&OOO&&&&&&&&&&&&&&&&&ooo   ",
"   ooo&&&&&&&&OOO&&&&&&&&&&&&&&&&&ooo   ",
"   ooo&&&OO===OOO$$$OOO===&&&&&&&&ooo   ",
"   ooo&&&OO===OOO$$$OOO===&&&&&&&&ooo   ",
"ooo&&&&&&OO&&&OOO%%%OOO&&&&&&&&&&&OOOooo",
"ooo&&&&&&OO&&&OOO%%%OOO&&&&&&&&&&&OOOooo",
"ooo&&&OOO..OOO......OOO&&&OOO&&&&&OOOooo",
"ooo&&&OOO..OOO......OOO&&&OOO&&&&&OOOooo",
"ooo&&&OOO..OOO......OOO&&&OOO&&&&&OOOooo",
"...OOO.....;;;...---...&&&OOO&&&&&&&&ooo",
"...OOO.....;;;...---...&&&OOO&&&&&&&&ooo",
"   ......;;;;;&&&:::OOO&&&OOOOOOOO&&&...",
"   ......;;;;;&&&:::OOO&&&OOOOOOOO&&&...",
"      ...$$;;;;;;;;;OOO&&&OOO..OOOOOO...",
"      ...$$;;;;;;;;;OOO&&&OOO..OOOOOO...",
"         ..$$$%%%;;;OOO######++XXXOOO...",
"         ..$$$%%%;;;OOO######++XXXOOO...",
"           ......OOO###########XXXOOO...",
"           ......OOO###########XXXOOO...",
"           ......OOO###########XXXOOO...",
"           ...%%%OOO;;;$$$---..OOOOOO...",
"           ...%%%OOO;;;$$$---..OOOOOO...",
"           ...@@@******@@@@@@..OOOOOO...",
"           ...@@@******@@@@@@..OOOOOO...",
"           ...******@@@:::---..OOO......",
"           ...******@@@:::---..OOO......",
"           .........***@@@...........   ",
"           .........***@@@...........   ",
"           .........***@@@...........   ",
"              ...#########...           ",
"              ...#########...           ",
"              ...............           ",
"              ...............           "
};
