/* XPM */
static char *result[] = {
/* columns rows colors chars-per-pixel */
"40 40 59 1 ",
"  c #4D2712",
". c #4E2913",
"X c #522C15",
"o c #56321A",
"O c #5A351D",
"+ c #5E391F",
"@ c #5E3B21",
"# c #623D22",
"$ c #644125",
"% c #664529",
"& c #69462A",
"* c #67482B",
"= c #6A4A2C",
"- c #6C4E31",
"; c #644E3B",
": c #704E31",
"> c #6E5234",
", c #66523F",
"< c #6C553E",
"1 c #715537",
"2 c #755837",
"3 c #735738",
"4 c #755A3A",
"5 c #795E3E",
"6 c #7B603F",
"7 c #675340",
"8 c #6A5642",
"9 c #6C5A46",
"0 c #6D5C48",
"q c #705C46",
"w c #7A5F40",
"e c #725E49",
"r c #7D6241",
"t c #74634D",
"y c #756451",
"u c #786752",
"i c #7B6A55",
"p c #7D6E5A",
"a c #7F7161",
"s c #816545",
"d c #816846",
"f c #826648",
"g c #856B4C",
"h c #886D4D",
"j c #8B714F",
"k c #806F5B",
"l c #8B7353",
"z c #82725D",
"x c #907756",
"c c #937C5C",
"v c #847562",
"b c #857865",
"n c #8A7B67",
"m c #8C7E6C",
"M c #907F6D",
"N c #9A8365",
"B c #90806E",
"V c #948675",
"C c None",
/* pixels */
"CCCCCCCCCCCCCC&:&::##:::::CCCCCCCCCCCCCC",
"CCCCCCCCCC===$hjjhh++djddj+#&#CCCCCCCCCC",
"CCCCC$#+hxxxx#cNNcx##xcccx+65562O+@CCCCC",
"CCCC&s##gNNNN&2522s##2666r+jljx5$#>@CCCC",
"CCC=hh#$x4jss$5r22r##26rrr$&#ssh#$>>@CCC",
"CC&fhc$$22hss#5rs2s&:26rrr&&gsww%%g>>+CC",
"C$5j54$#:hsss&5srrs&&66rs6&wwws5==5rg>+C",
"C&j545$&sssss=w5rrr&&6rrrr&swwww=-666g+C",
"&wl544==sssrs=5s66d==6rrrr=rr66r:-666g>O",
"#h4444==rssss&5w66d&=rrrrs=66r65>>6666jO",
"O14442=:rsr#s-5w66r==dsrrr=r&w66::66666.",
"O+++#####&#M&=ww66s==drrrr=$M$####++OOO.",
"ouikkkvzxvbkm&5w66s&=d6r6s#MizvkikiikuuX",
"oqweeuuuiiiikn&556s&=frr6#Vguuutttttt9qX",
"ooXooXXXXXofX=5w56r&=drrs6=ouoXXXoXXXXXX",
"X#&#&&##==:X::w556r&=dr5sr==X=&=**=*&%*X",
"X32342@@5rr*->r455r=*g66s6=r*55w>>33333.",
"X34433%$w5r6--q655r&*g6s66=r5rw5->33333.",
"X33233*=r465*>644wr&&gs5rr=r4655>-44333X",
"X33333==r4446-444wr*&g5r6r:rr455>>>>1>1X",
"X13333**r4446-16w4w$%g5566;r4464>>>3111X",
"X13333==w3444-443@#@@##566>r464r*>>1>11X",
".1>311-=r4431>44@yyttttO66-r4644**>>>11.",
".>33<3-=w3331-44oetXXet+16-r4444%*3>>>>.",
"X11131--61113>44Xqe..q0X14-64444%%>>>>>.",
".11311-*62131=44.<<1<<<.14-64644%*>>>>>.",
".OOO++++@@@B@=134**oO**144-@m@@@O@O+ooo.",
".uuiipvzaabuB@33611$$64414@Btppuiiuuuyy.",
".<<qqettytyutB+1111%$1414@Byttt00e0e09<.",
".<<90qtttttut.11141$%1144>.ytyte000q0<<.",
".@@$%%OO***.*%11111$$11>>1$*.%$$$@%###@.",
".>>>>>OO111*1@1111<@@1>1>>$4*444@@---=* ",
".>->>>@@111>1$><>11oO>>1>1$44444$$;*--* ",
" >>->>@@>1>>>$>1,,>oo1>,>>@44<44@@*>-=- ",
" uttyyuiyuuuiyuipaa..aaapuuuyyyyy0yttt0 ",
".pbbbbbabbaBBmBBmVV..VVBmmBbbbbbbbbbvba ",
" <,,,,77,,79009900y. y000000090779,,,,; ",
".,,,,,,,,799700700y .y000000797777,,;;; ",
".;;;77777979990000y..y00000007977977,,; ",
". . ....         .. .   ..............  "
};
