/* XPM */
static char *result[] = {
/* columns rows colors chars-per-pixel */
"40 40 6 1 ",
"  c black",
". c #24530C",
"X c #B35F0E",
"o c #CB8F18",
"O c #FFD145",
"+ c None",
/* pixels */
"++++++++++++++++++++++++++++++++++++++++",
"++++++++++++++++++++++++++++++++++++++++",
"++++++++++++++++++++++++++++++++++++++++",
"++++++++++++++++++++++++++++++++++++++++",
"++++++++++++++++++++++++++++++++++++++++",
"++++++++++++++++++++++++++++++++++++++++",
"++++++++++++++++++++++++++++++++++++++++",
"++++++++++++++++++++++++++++++++++++++++",
"++++++++++++++++++++++++++++++++++++++++",
"++++++++++++++++++++++++++++++++++++++++",
"++++++++++          ++++++++++++++++++++",
"++++++++++          ++++++++++++++++++++",
"++++++++  OOOOOOOOOO  ++++++++++++++++++",
"++++++++  OOOOOOOOOO  ++++++++++++++++++",
"++++++  OOooooooOOoo          ++++++++++",
"++++++  OOooooooOOoo          ++++++++++",
"++++++  OOooooOOoo  OOOOOOOOOO  ++++++++",
"++++++  OOooooOOoo  OOOOOOOOOO  ++++++++",
"++++++  XXooOOoo  OOooooooOOooOO  ++++++",
"++++++  XXooOOoo  OOooooooOOooOO  ++++++",
"+++++++.  XXXXXX  OOooooOOooooOO  ++++++",
"+++++...  XXXXXX  OOooooOOooooOO  ++++++",
"+++++.....        XXooOOooooooXX  ++++++",
"+++.......        XXooOOooooooXX  ++++++",
"+++...............  XXXXXXXXXX  ++++++++",
"+++...............  XXXXXXXXXX  ++++++++",
"+++.................          ++++++++++",
"+++.................          .+++++++++",
"+++............................+++++++++",
"+++++..........................+++++++++",
"+++++..........................+++++++++",
"+++++++........................+++++++++",
"+++++++........................+++++++++",
"+++++++++++++++..............+++++++++++",
"+++++++++++++++..............+++++++++++",
"+++++++++++++++++..........+++++++++++++",
"+++++++++++++++++..........+++++++++++++",
"++++++++++++++++++++++++++++++++++++++++",
"++++++++++++++++++++++++++++++++++++++++",
"++++++++++++++++++++++++++++++++++++++++"
};
