/* XPM */
static char *result[] = {
/* columns rows colors chars-per-pixel */
"40 40 13 1 ",
"  c #72751B",
". c #787B21",
"X c #7F8226",
"o c #B3B0A9",
"O c #636917",
"+ c #656C17",
"@ c #9CA8AD",
"# c #BD9842",
"$ c #A2814F",
"% c #A2783C",
"& c #C6A740",
"* c #7F8124",
"= c #686F16",
/* pixels */
"                                        ",
"                            .           ",
"            X                           ",
"            ...       .o                ",
"      o      X                   X      ",
"                  X             ..      ",
"                 O+       O         X   ",
"                 +                  OO  ",
"                                        ",
"                                        ",
"                                        ",
"                             X          ",
"                 +@.       #.           ",
"     .@          $o       %&   .X       ",
"    +oo                                 ",
"      o                                 ",
"            X         .              +  ",
"             ..                         ",
"                                        ",
"                                        ",
"               +.X                  X   ",
"       . .     @+                   &.  ",
"                   X     .*.            ",
"                  .      =*             ",
"                         $              ",
"    O%       X.          O              ",
"             Oo       *                 ",
"              O                         ",
"                                        ",
"                            .           ",
"   .        ..                          ",
"             O# ...                     ",
"         o       O#     .           @.  ",
"         O        #O  *.=           @=  ",
"  *o=*                 o          =o    ",
"   O @=     .&                          ",
"      O           .                     ",
"                                        ",
"                                      . ",
"                                        "
};
