/* XPM */
static char *result[] = {
/* columns rows colors chars-per-pixel */
"40 40 8 1 ",
"  c #21110D",
". c #171C31",
"X c #503625",
"o c #114517",
"O c #347B2C",
"+ c #755338",
"@ c #53A03B",
"# c None",
/* pixels */
"############################  ##########",
"############################  ##########",
"#######   ##OOO  .OOOO.    O@@@@ OO#####",
"#####  O@@OO@OO@@OOO@@@OO@@O@@@@@@@  ###",
"#####  O@@OO@OO@@OOO@@@OO@@O@@@@@@@  ###",
"###  OO@@@@@@@@@@@@@@@@@@@@@@@@@@@@  ###",
"###  OO@@@@@@@@@@@@@@@@@@@@@@@@@@@@  ###",
"###ooOO@@@@@@@@@@@@@@@@@@@@@@@@@@@@oo###",
"## @@@@@@@@@@@@@@@@@@@@@@@@@@@@@@@@OO ##",
"## @@@@@@@@@@@@@@@@@@@@@@@@@@@@@@@@OO ##",
"##o@@@@@@@@@@@@@@@@@@@@@@@@@@@@@@@@@@o##",
"##o@@@@@@@@@@@@@@@@@@@@@@@@@@@@@@@@@@o##",
"..XooOO@@@@@@@@@@@@@@@@@@@@@@@@@@@@@@o..",
".. ooOO@@@@@@@@@@@@@@@@@@@@@@@@@@OOoo ..",
".. ooOO@@@@@@@@@@@@@@@@@@@@@@@@@@OOoo ..",
"##XOO@@@@@@@@@@@@@@@@@@@@@@@@@@@@@@OOX##",
"##XOO@@@@@@@@@@@@@@@@@@@@@@@@@@@@@@OOX##",
"..o@@@@@@@@@@@@@@@@@@@@@@@@@@@@@@@@@@o..",
"..o@@@@@@@@@@@@@@@@@@@@@@@@@@@@@@@@@@o..",
"..o@@@@@@@@@@@@@@@@@@@@@@@@@@@@@@@@@@o..",
"  XOOOO@@@@@@@@@@@@@@@@@@@@@@@@@@OOOOX  ",
"  XOOOO@@@@@@@@@@@@@@@@@@@@@@@@@@OOOOX  ",
"  +OOOO@@@@@@@@@@@@@@@@@@@@@@@@@@@@OO+  ",
"  +OO@@@@@@@@@@@@@@@@@@@@@@@@@@@@@@oo+  ",
"  +OO@@@@@@@@@@@@@@@@@@@@@@@@@@@@@@oo+  ",
"..Xoooo@@@@@@@@@@@@@@@@@@@@@@@@@@@@@@o..",
"..Xoooo@@@@@@@@@@@@@@@@@@@@@@@@@@@@@@o..",
"..XooOO@@@@@@@@@@@@@@@@@@@@@@@@@@@@OO+  ",
"..+XXoo@oo@@@OOOO@OO@@@oo@@@ooOOoOOoo+  ",
"..+XXoo@oo@@@OOOO@OO@@@oo@@@ooOOoOOoo+  ",
"..+XX++oXXOOOooXXo++ooO++OOo++oo++++++  ",
"..+XX++oXXOOOooXXo++ooO++OOo++oo++++++  ",
"..X+++++++++++++++++++++++++++++++++++  ",
"..X+++++++++++++++++++X++++++++++++XX+  ",
"..X+++++++++++++++++++X++++++++++++XX+  ",
".. +++++++++++++++++++X++++++++++++XX+  ",
".. +++++++++++++++++++X++++++++++++XX+  ",
"##.++++++++++XX+++++++XXX++++++++++XX ##",
"###....   .. ..     .......   .. ....###",
"###....   .. ..     .......   .. ....###"
};
