/* XPM */
static char *result[] = {
/* columns rows colors chars-per-pixel */
"40 40 57 1 ",
"  c #4F2913",
". c #522B14",
"X c #542F18",
"o c #573017",
"O c #55311A",
"+ c #5B341B",
"@ c #5D381E",
"# c #60381D",
"$ c #5E3A21",
"% c #623D23",
"& c #5A4432",
"* c #5E4834",
"= c #634126",
"- c #684326",
"; c #644529",
": c #69462A",
"> c #664A2D",
", c #6B4A2D",
"< c #6B4E31",
"1 c #714F33",
"2 c #6C5134",
"3 c #64513E",
"4 c #725234",
"5 c #725739",
"6 c #765A3B",
"7 c #795D3D",
"8 c #675340",
"9 c #685542",
"0 c #6B5846",
"q c #6E5D4A",
"w c #705C47",
"e c #7B5F40",
"r c #705D48",
"t c #7E6243",
"y c #74614D",
"u c #736350",
"i c #786651",
"p c #7D6852",
"a c #7C6D5B",
"s c #7E705F",
"d c #806646",
"f c #816749",
"g c #846A4B",
"h c #886F4F",
"j c #886F50",
"k c #8C7354",
"l c #81705D",
"z c #8F7758",
"x c #8F7858",
"c c #907755",
"v c #917957",
"b c #937C5B",
"n c #867664",
"m c #978164",
"M c #9D8663",
"N c #9E8768",
"B c None",
/* pixels */
"BBBB,,>>+BBBBBBBBBBBBBBBBBBBBBB11111BBBB",
"BBB<kttt+BBBBBBBBBBBBBBBBBBBBBB,ckgg4BBB",
"BB,vgg24+BBBBBBBBBBBBBBBBBBBBBB,d7ckk1BB",
"BB,vgj22+BBBBBBBBBBBBBBBBBBBBBB,ddvck1BB",
"BB>xgj<2oBBBBBBBBBBBBBBBBBBBBBB,debbc1BB",
"B:bkk<2<+BBBBBBBBBBBBBBBBBBBBBB,eddbvv1B",
"B>mzz<2<oBBBBBBBBBBBBBBBBBBBBBB,dddNbb1B",
"B:mzz222oBBBBBBBBBBBBBBBBBBBBBB,dddNbb1B",
";mzzz<<<XBBBBBBBBBBBBBBBBBBBBBB,dedbbbb%",
":bzz<<<<XBBBBBBBBBBBBBBBBBBBBBB,dddebbb%",
";mzk<<<<XBBBBBBBBBBBBBBBBBBBBBB,ddddNbb%",
";bjj<X,<.BBBBBBBBBBBBBBBBBBBBBB:dd:dNbb%",
";bjj.9.X.BBBBBBBBBBBBBBBBBBBBBB:1,z1Mkj#",
"%%%#X>X.XBBBBBBBBBBBBBBBBBBBBBB%%%p:%:%+",
"%yyr*.<>.BBBBBBBBBBBBBBBBBBBBBB#dd#igli#",
"%uri.,<:.BBBBBBBBBBBBBBBBBBBBBB#dd7#iif#",
"=Oo <>>>.BBBBBBBBBBBBBBBBBBBBBB#ttt6###+",
"$tt7>>,>XBBBBBBBBBBBBBBBBBBBBBB#eettcdd+",
"$gtt>> .8.BBBBBBBBBBBBBBBBBBBB#n##ttcgd+",
"$ttt>>X & BBBBBBBBBBBBBBBBBBBB#p##eehdd+",
"$gt6>;  & BBBBBBBBBBBBBBBBBBBB#y++76jt7o",
"$t66;;  & BBBBBBBBBBBBBBBBBBBB+y++67kt7X",
"@pe6;;;;OBBBBBBBBBBBBBBBBBBBBBB+6666ht7o",
"@t66=;$=.BBBBBBBBBBBBBBBBBBBBBBo4545g67.",
"@t56==== BBBBBBBBBBBBBBBBBBBBBBo4444g56X",
"@t55====.BBBBBBBBBBBBBBBBBBBBBBX22%4g65 ",
"Xy55 3   BBBBBBBBBBBBBBBBBBBBBB.@+0+g55 ",
" O@+ &  .BBBBBBBBBBBBBBBBBBBBBB.:>+i . X",
".lsa3 =$ BBBBBBBBBBBBBBBBBBBBBB.,,o0llsX",
".wrr.$  & BBBBBBBBBBBBBBBBBBBB.3 .,+wwq ",
".   $$  & BBBBBBBBBBBBBBBBBBBB.3  ,-    ",
" >>>@ 33& BBBBBBBBBBBBBBBBBBBB 3qy.,4,, ",
" e55@ && BBBBBBBBBBBBBBBBBBBBBB 09 >t55 ",
" e55 3&& BBBBBBBBBBBBBBBBBBBBBB 09s.d25 ",
" ..  &&& BBBBBBBBBBBBBBBBBBBBBB 00q     ",
" uw3&&  BBBBBBBBBBBBBBBBBBBBBBBB  qs998 ",
" u00&&  BBBBBBBBBBBBBBBBBBBBBBBB  qs399 ",
" u00& BBBBBBBBBBBBBBBBBBBBBBBBBBBB s999 ",
" y00& BBBBBBBBBBBBBBBBBBBBBBBBBBBB a999 ",
"     BBBBBBBBBBBBBBBBBBBBBBBBBBBBBB     "
};
