/* XPM */
static char *result[] = {
/* columns rows colors chars-per-pixel */
"40 40 58 1 ",
"  c #4E2913",
". c #512C14",
"X c #522E18",
"o c #55331E",
"O c #58351F",
"+ c #563521",
"@ c #583621",
"# c #573926",
"$ c #5A3A25",
"% c #573A28",
"& c #5A3E2B",
"* c #666618",
"= c #72751B",
"- c #5B402D",
"; c #5B4332",
": c #5F4937",
"> c #5F4939",
", c #604A37",
"< c #614D3B",
"1 c #63503E",
"2 c #5D4F44",
"3 c #5E5145",
"4 c #5F564C",
"5 c #5E584E",
"6 c #5F5950",
"7 c #645342",
"8 c #61554A",
"9 c #63594E",
"0 c #685C4F",
"q c #645D54",
"w c #695F51",
"e c #655F58",
"r c #656056",
"t c #6B6355",
"y c #676159",
"u c #6A635B",
"i c #6E695D",
"p c #716B5D",
"a c #6E6860",
"s c #716D61",
"d c #786E62",
"f c #757267",
"g c #7A7566",
"h c #767468",
"j c #79766B",
"k c #7D7A6D",
"l c #7F7C72",
"z c #807E6F",
"x c #817E73",
"c c #848276",
"v c #858379",
"b c #89867C",
"n c #8A897D",
"m c #8D8A83",
"M c #918E84",
"N c #95938C",
"B c #99978F",
"V c #9C9A93",
/* pixels */
"vvb-================================%xvv",
"vvvvO==============================%bmvv",
"Nvvv-*=============================#xvvN",
"Nvvv$ oo+ooO%%%----%=#+#ooo+o++o+  +bvvN",
"Nvvv$wggkgkkkkzkkkcb-ghhjhfhffsfafa+vbxN",
"Nccc-wnncvvcvcvvnmnn-nmnlllllllllxv+xxxm",
"Nxcc$0tttuitiiiiippc-yuuaeyyrr6r988+xxxm",
"Nxxz- o##%-%itiiiipc yyyyeye X+    #xxxm",
"Nxcc+9ifffff hiiiiiiiiaiaaiihffffff+xlxm",
"Nxcco9ffffff;haiiiiiiiiiaaiihffffff+lljm",
"Nlxc 5rra66y;66qree6eree665ar6eeeeyXljxb",
"Nccc----   X 666rrrrrre66r5a  ;;&&&&lllb",
"Nmmm+yfffffffhffffhffkkjjlkjjkjkjjj mmmN",
"Mlll-uffffhhhhhhfffhfkjlljkjkjljxjl hhfN",
"mlll-6rreeeeeeeyreyysaayaaarereeyyeohhjm",
"mlll# --&;;&&;&+++ X  X##;&;&--;&&&@jjjm",
"mlll$yhhhhhhhh-hfhhhhhhhhhl-zkkkzzzOgzlm",
"mlllOthhhhhhhh:hhhhhhhhhhhl-zczzzxdOzjjm",
"mlll$7yyyyyyru>yyuyyuyuuyys>ptpiata@jjxm",
"mllk$8yyyyuy99.ruyuyyuyuuya.ipiiaaa+jxjm",
"mlll$0ipsipfshgfhhk1xzkkkkkhhhhhjhh+jdxm",
"mjjk.0sspfpisagfhhg7zkkkkkhjhhhhjdhXjdzm",
"&-o 33qqq6qq6r6r66r7rrryryuyuyuyyyy2 o&%",
"VbbnO356qq6qq6r66r6Xrrryyyyuyu......vbbV",
"VnnnOtkhhhjjzXjkjljjjjjjjjjjl ssauwOxbbB",
"NnvnOthhhhhhz1jjjjjjjjjjjjhhl8xlxxxOxxvM",
"NnnnO4utuuitf,uuayaaaaaaaaaaa<q9993+xvxM",
"Bnvn$9uyurttf.ruyaaaaaaiaaaa9.99998+xxxM",
"Nnnc$.oOOO$OO---&+++o.kjhhhjhhhhdhh+xxxm",
"Bnnc$pkcccczckzkllkkz7chjjhhhhhhdzh+zxxm",
"NnccOzccccncccnbnnmmM7huyuuyuyeyeqqOzzxm",
"Nccc.0pttppppppspspfs7hyuyyuyyyeeqq.xzxm",
"Bccc..+&,,&&$<,,>;;%.khgkjhkkhhhhhh xxzm",
"VNBBX0pdfpk%ffdffjhjhgkhhgkzkhhhhhhXmmmm",
"NncnOpxxcmn7bbvvvvvvvvvvvnnnnnvvvvcozzjm",
"Ncnc+24898s.88uuuuuyyrrqqqqfhrrwqq6#zjgm",
"BcbbOthhhhhhhhhhhhh-ccxxckzckgzggggOhjgb",
"NcxxOthhhhhhhhhhhhh7czcxczkczkgggggofggm",
"NxxxOdvvxmmlxbvvvnn1nnmnnnnnnnnnnnnoghhn",
"NxxxO8eteeeeayeeyyy$gpuaittitttttr0Ofghn"
};
