/* XPM */
static char *result[] = {
/* columns rows colors chars-per-pixel */
"40 40 9 1 ",
"  c #33161F",
". c #0B2E23",
"X c #5B3138",
"o c #174429",
"O c #2E6D35",
"+ c #8E5252",
"@ c #AA7564",
"# c #63A941",
"$ c None",
/* pixels */
"$$$$$$$$$$$$$$$$$O.O$$$$$$$$$$$$$$$$$$$$",
"$$$$$$$$$$$$$$$$$####$$$$$$$$$$$$$$$$$$$",
"$$$$$$$$$$$$##O#O#####O$$#####$$$$$$$$$$",
"$$$$$$$$$$$$#O#OOO##O#OO####O#O$$###$$$$",
"$$$$$$$$$$$$##oOOOOoOoOO##o###oO#####$$$",
"$$$$$$$$$$$$OoOoOoooOoOO###O###oO##O#$$$",
"$$$$$$$$$$$OOOooooooooO###OOO##o##O##$$$",
"$$$$$$$$$$oO##O###O###OO#o#oo#o######O#$",
"$$$$$$$OOOOOO###oO#####Oo##Oooo###O####$",
"$$$$$$$###OO###OoOO##OOOOoO.OOooOOOO#O#$",
"$$$$$$O####O###OOOOO##ooOOOOOOOoOoOOO#O$",
"$$$$$$##O#OOO#OOOOOOO#o.#####.OooOOOO#O$",
"$$#O#oO##O#oO.OOoOooOo#O#o##OO##.oooO$$$",
"$$###OO#OoO#OO.....ooO#####O###OOoo.o#$$",
"$####OOooOOo..#.##o..o###OOoO#o#oo.oo.$$",
"O#O##oOooOoOo..#Oo#o..o##OoO###O#ooo.o$$",
"O.####ooOooo#####OO#..##OOO..#####O##o$$",
"O##OOOO..o.O#OOOOo#O...#O#o.ooo##o##O#oo",
"O#OOOOO...o#O#OOoOO.O#o.OOo.oooooO####oo",
"$o#OOO....O#OOOooO.o##OO.O.oooooooooo#oo",
"$$..O..##.oOOooo..###OoOOOoo###ooooo#Ooo",
"$$....###ooOoooo.#OOOoOoOo.#O###o.oooooo",
"$$$$$#OOOoOo..oooOOOOoo.O.#oOOOO.o...oo$",
"$$$$$#OOoooo....oooooo...O.OOOOO.$$..$$$",
"$$$$$Oooooo.$$.$.ooo....ooooOOO..$$$$$$$",
"$$$$$$O.oo..$$.$$o....  $$.ooooO.$$$$$$$",
"$$$$$$$..$  $.$$$       $$$...o.$$$$$$$$",
"$$$$$$$$$$$$  .   X  XX  $$$$.$$$$$$O$$$",
"$$$$$$$$$$$$+O@XXX XXX   $$$$O$$$$$$$$$$",
"$$$$$$$$$$$$$O@@@ XXXXX   $$$$$$$$$$$$$$",
"$$$$$$$$$$$$$$$$$ +XXXX X $$$$$$$$$$$$$$",
"$$$$$$$$$$$$$$$$$O+XXXXX  $$$$$$$$$$$$$$",
"$$$$$$$$$$$$$$$$$+XXXX@   $$$$$$$$$$$$$$",
"$$$$$$$$$$$$$$$$+XXXXXX  $$$$$$$$$$$$$$$",
"$$$$$$$$$$$#$$X++XX@X@X  $#$$$$$$$$$$$$$",
"$$$$$$$+++OO++++ @@@XX X O#$$$O$$$$$$$$$",
"$$##$++@@X@++    @XXXX   O$$OOO$$$$$$$$$",
"$$$++@@XXXXX@XX@@XX#O   $#O.ooo$$$$$$$$$",
"$$+#oXX.X.XXX#O.XXOOo. OO.oOO.ooO$$$$$$$",
"++#..o.OO..O...o.....o...o.....o.O$$$$$$"
};
